<svg width="23" height="23" viewBox="0 0 23 23" fill="none" xmlns="http://www.w3.org/2000/svg">
<circle cx="11.5" cy="11.5" r="11.5" fill="#E7E7E7"/>
<path d="M3 10.3018H19V12.6982H3V10.3018Z" fill="white"/>
<path d="M3 11.5103H19V12.6982H3V11.5103Z" fill="#DCDCDC"/>
<path d="M5.02292 14.73C4.38316 14.73 3.8645 14.1659 3.8645 13.4702V9.5298C3.8645 8.83402 4.38316 8.26996 5.02292 8.26996C5.66268 8.26996 6.18133 8.83402 6.18133 9.5298V13.4702C6.18133 14.166 5.66268 14.73 5.02292 14.73Z" fill="#636978"/>
<path d="M7.13449 16C6.49473 16 5.97607 15.4359 5.97607 14.7401V8.25984C5.97607 7.56407 6.49473 7 7.13449 7C7.77425 7 8.29291 7.56407 8.29291 8.25984V14.7402C8.29291 15.4359 7.77429 16 7.13449 16Z" fill="#555A66"/>
<path d="M16.976 8.26999C17.6158 8.26999 18.1345 8.83405 18.1345 9.52983V13.4702C18.1345 14.166 17.6158 14.73 16.976 14.73C16.3363 14.73 15.8176 14.166 15.8176 13.4702V9.52983C15.8176 8.83401 16.3363 8.26999 16.976 8.26999Z" fill="#636978"/>
<path d="M14.8659 7C15.5057 7 16.0244 7.56407 16.0244 8.25984V14.7402C16.0244 15.4359 15.5057 16 14.8659 16C14.2262 16 13.7075 15.4359 13.7075 14.7402V8.25984C13.7075 7.56403 14.2261 7 14.8659 7Z" fill="#555A66"/>
<path d="M3.8645 11.5103V13.4701C3.8645 14.1659 4.38316 14.73 5.02292 14.73C5.66268 14.73 6.18133 14.1659 6.18133 13.4701V11.5103H3.8645Z" fill="#343A41"/>
<path d="M5.97607 11.5103V14.7402C5.97607 15.4359 6.49473 16 7.13449 16C7.77425 16 8.29291 15.4359 8.29291 14.7402V11.5103H5.97607Z" fill="#272B30"/>
<path d="M15.8176 11.5103V13.4701C15.8176 14.1659 16.3363 14.73 16.976 14.73C17.6158 14.73 18.1345 14.1659 18.1345 13.4701V11.5103H15.8176Z" fill="#343A41"/>
<path d="M13.7075 11.5103V14.7401C13.7075 15.4359 14.2262 16 14.8659 16C15.5057 16 16.0244 15.4359 16.0244 14.7401V11.5103H13.7075Z" fill="#272B30"/>
</svg>
