<svg width="52" height="21" viewBox="0 0 52 21" fill="none" xmlns="http://www.w3.org/2000/svg">
<path d="M13.4286 10.1429H10.8571V7.57143C10.8571 7.25589 10.6013 7 10.2857 7H9.71429C9.39875 7 9.14286 7.25589 9.14286 7.57143V10.1429H6.57143C6.25589 10.1429 6 10.3988 6 10.7143V11.2857C6 11.6013 6.25589 11.8571 6.57143 11.8571H9.14286V14.4286C9.14286 14.7441 9.39875 15 9.71429 15H10.2857C10.6013 15 10.8571 14.7441 10.8571 14.4286V11.8571H13.4286C13.7441 11.8571 14 11.6013 14 11.2857V10.7143C14 10.3988 13.7441 10.1429 13.4286 10.1429Z" fill="#465FD2"/>
<path d="M26.125 15H24.942L20.184 7.785V15H19.001V5.926H20.184L24.942 13.128V5.926H26.125V15ZM34.9666 11.165C34.9666 11.3903 34.9536 11.6287 34.9276 11.88H29.2336C29.277 12.582 29.5153 13.1323 29.9486 13.531C30.3906 13.921 30.9236 14.116 31.5476 14.116C32.059 14.116 32.4836 13.999 32.8216 13.765C33.1683 13.5223 33.411 13.2017 33.5496 12.803H34.8236C34.633 13.4877 34.2516 14.0467 33.6796 14.48C33.1076 14.9047 32.397 15.117 31.5476 15.117C30.8716 15.117 30.265 14.9653 29.7276 14.662C29.199 14.3587 28.783 13.9297 28.4796 13.375C28.1763 12.8117 28.0246 12.1617 28.0246 11.425C28.0246 10.6883 28.172 10.0427 28.4666 9.488C28.7613 8.93333 29.173 8.50867 29.7016 8.214C30.239 7.91067 30.8543 7.759 31.5476 7.759C32.2236 7.759 32.8216 7.90633 33.3416 8.201C33.8616 8.49567 34.2603 8.903 34.5376 9.423C34.8236 9.93433 34.9666 10.515 34.9666 11.165ZM33.7446 10.918C33.7446 10.4673 33.645 10.0817 33.4456 9.761C33.2463 9.43167 32.9733 9.18467 32.6266 9.02C32.2886 8.84667 31.9116 8.76 31.4956 8.76C30.8976 8.76 30.3863 8.95067 29.9616 9.332C29.5456 9.71333 29.3073 10.242 29.2466 10.918H33.7446ZM46.3431 7.876L44.1201 15H42.8981L41.1821 9.345L39.4661 15H38.2441L36.0081 7.876H37.2171L38.8551 13.856L40.6231 7.876H41.8321L43.5611 13.869L45.1731 7.876H46.3431Z" fill="#465FD2"/>
<rect opacity="0.1" y="2" width="52" height="19" rx="5" fill="#C4C4C4"/>
</svg>
