<svg width="21" height="17" viewBox="0 0 21 17" fill="none" xmlns="http://www.w3.org/2000/svg">
<path d="M12.8158 11.3135H8.18424C7.83516 11.3135 7.55121 11.5975 7.55121 11.9465V13.3671C7.55121 13.7162 7.83516 14.0002 8.18424 14.0002H12.8159C13.1649 14.0002 13.4489 13.7162 13.4489 13.3671V11.9465C13.4488 11.5975 13.1649 11.3135 12.8158 11.3135ZM12.6349 13.1862H8.36508V12.1275H12.6349V13.1862Z" fill="#999999"/>
<path d="M20.7939 7.79527L20.8005 7.79198L17.7487 1.75842C17.502 1.27075 17.0094 0.967846 16.463 0.967846H15.883V0.406957C15.883 0.182191 15.7008 0 15.4761 0H5.52398C5.29922 0 5.11703 0.182191 5.11703 0.406957V0.967846H4.53703C3.99066 0.967846 3.49806 1.27075 3.25135 1.75842L0.199541 7.79198L0.206063 7.79527C0.0753457 8.01056 0 8.26305 0 8.53277V14.907C0 15.6929 0.639434 16.3323 1.42537 16.3323H19.5747C20.3606 16.3323 21 15.6929 21 14.907V8.53277C21 8.26305 20.9247 8.01056 20.7939 7.79527ZM15.883 1.8722H16.463C16.6664 1.8722 16.8498 1.98503 16.9417 2.16665L19.4408 7.10747H17.7414V5.58719C17.7414 5.36242 17.5592 5.18023 17.3345 5.18023H16.831V2.99709C16.831 2.77233 16.6488 2.59014 16.4241 2.59014H15.883V1.8722ZM16.9276 5.99411V7.10743H14.78C14.4115 7.10743 14.0756 7.32453 13.9242 7.66041L13.3379 8.96101C13.3323 8.97328 13.32 8.98123 13.3065 8.98123H7.69351C7.68001 8.98123 7.66775 8.97327 7.66217 8.96097L7.07585 7.66045C6.92442 7.32453 6.5885 7.10743 6.22002 7.10743H4.07248V5.99411H16.9276V5.99411ZM5.93094 0.813914H15.0691V2.5901H5.93094V0.813914ZM16.0171 3.40401V5.18019H4.98291V3.40401H16.0171ZM4.05833 2.16665C4.15021 1.98499 4.33363 1.8722 4.53703 1.8722H5.11703V2.5901H4.57595C4.35118 2.5901 4.16899 2.77229 4.16899 2.99705V5.18019H3.66553C3.44076 5.18019 3.25857 5.36238 3.25857 5.58715V7.10743H1.55925L4.05833 2.16665ZM19.5747 15.4279H1.42537C1.1381 15.4279 0.904354 15.1942 0.904354 14.907V8.53277C0.904354 8.24553 1.13806 8.01183 1.42537 8.01183H6.22002C6.23347 8.01183 6.24582 8.01978 6.2514 8.03213L6.83772 9.33265C6.98914 9.66857 7.32502 9.88559 7.69351 9.88559H13.3065C13.675 9.88559 14.0109 9.66853 14.1623 9.33269L14.7486 8.03213V8.03209C14.7542 8.01978 14.7665 8.01183 14.78 8.01183H19.5746C19.8619 8.01183 20.0956 8.24558 20.0956 8.53277V14.907H20.0956C20.0956 15.1942 19.8619 15.4279 19.5747 15.4279Z" fill="#999999"/>
</svg>
