<svg width="10" height="10" viewBox="0 0 10 10" fill="none" xmlns="http://www.w3.org/2000/svg">
<path d="M6.78156 5.88304L5.38728 4.83734V2.70722C5.38728 2.49304 5.21416 2.31992 4.99998 2.31992C4.7858 2.31992 4.61267 2.49304 4.61267 2.70722V5.03101C4.61267 5.153 4.66999 5.26804 4.76759 5.34085L6.31677 6.50275C6.38648 6.55503 6.46783 6.58021 6.54876 6.58021C6.66689 6.58021 6.78308 6.52714 6.859 6.4249C6.98761 6.25408 6.95275 6.01124 6.78156 5.88304Z" fill="#FDFDFD"/>
<path d="M5 0C2.24283 0 0 2.24283 0 5C0 7.75717 2.24283 10 5 10C7.75717 10 10 7.75717 10 5C10 2.24283 7.75717 0 5 0ZM5 9.22541C2.67041 9.22541 0.77459 7.32959 0.77459 5C0.77459 2.67041 2.67041 0.77459 5 0.77459C7.32998 0.77459 9.22541 2.67041 9.22541 5C9.22541 7.32959 7.32959 9.22541 5 9.22541Z" fill="#FDFDFD"/>
</svg>
