<svg width="18" height="17" viewBox="0 0 18 17" fill="none" xmlns="http://www.w3.org/2000/svg">
<path d="M10.1601 3.00793L1.6491 12.3716C1.60629 12.4188 1.57654 12.4773 1.564 12.5393L0.762942 16.5625C0.739016 16.6836 0.780254 16.8092 0.871766 16.8924C0.941007 16.9553 1.0328 16.9876 1.12492 16.9832C1.15313 16.9819 1.18182 16.977 1.20957 16.9686L5.13834 15.7884C5.19957 15.7699 5.25433 15.7349 5.29715 15.6878L13.8089 6.32474L10.1601 3.00793Z" fill="#9B9B9B"/>
<path d="M15.7989 1.51782L14.7566 0.570408C14.0601 -0.0627953 12.9012 -0.00691151 12.2688 0.689L11.1083 1.9657L14.757 5.28239L15.9175 4.00568C16.2338 3.65785 16.3957 3.20724 16.3733 2.73726C16.3509 2.26729 16.1469 1.83412 15.7989 1.51782Z" fill="#9B9B9B"/>
</svg>
