<svg width="15" height="15" viewBox="0 0 15 15" fill="none" xmlns="http://www.w3.org/2000/svg">
<path d="M13.9286 5.84375H9.10714V1.0625C9.10714 0.475801 8.62734 0 8.03571 0H6.96429C6.37266 0 5.89286 0.475801 5.89286 1.0625V5.84375H1.07143C0.479799 5.84375 0 6.31955 0 6.90625V7.96875C0 8.55545 0.479799 9.03125 1.07143 9.03125H5.89286V13.8125C5.89286 14.3992 6.37266 14.875 6.96429 14.875H8.03571C8.62734 14.875 9.10714 14.3992 9.10714 13.8125V9.03125H13.9286C14.5202 9.03125 15 8.55545 15 7.96875V6.90625C15 6.31955 14.5202 5.84375 13.9286 5.84375Z" fill="white"/>
</svg>
