<svg width="21" height="23" viewBox="0 0 21 23" fill="none" xmlns="http://www.w3.org/2000/svg">
<path d="M10.4999 15.5863C7.97221 15.5863 5.91571 13.5298 5.91571 11.0021C5.91571 8.47434 7.97221 6.41785 10.4999 6.41785C13.0275 6.41785 15.084 8.47434 15.084 11.0021C15.084 13.5298 13.0275 15.5863 10.4999 15.5863V15.5863ZM10.4999 7.7931C8.73034 7.7931 7.29096 9.23265 7.29096 11.0021C7.29096 12.7715 8.73034 14.2111 10.4999 14.2111C12.2694 14.2111 13.7087 12.7715 13.7087 11.0021C13.7087 9.23265 12.2694 7.7931 10.4999 7.7931V7.7931Z" fill="#999999"/>
<path d="M12.0246 22.004H8.97507C8.24162 22.004 7.59344 21.4833 7.43396 20.7654L7.04801 19.0491C6.41897 18.7823 5.81931 18.4339 5.25642 18.0085L3.58503 18.5365C2.86803 18.7593 2.08874 18.4549 1.72932 17.8131L0.209355 15.1847C-0.154771 14.5337 -0.0318849 13.7324 0.503644 13.2281L1.79899 12.0371C1.7597 11.6878 1.7404 11.3413 1.7404 11.002C1.7404 10.6627 1.7597 10.3162 1.79815 9.96688L0.510023 8.7815C-0.0318849 8.27166 -0.155611 7.47038 0.204654 6.82774L1.73402 4.18267C2.08874 3.54809 2.86988 3.24658 3.58235 3.46566L5.25642 3.99464C5.81931 3.56924 6.41897 3.2209 7.04801 2.95397L7.4348 1.23591C7.59344 0.520756 8.24162 0 8.97507 0H12.0246C12.758 0 13.4062 0.520756 13.5657 1.2386L13.9516 2.95498C14.5807 3.22174 15.1803 3.57008 15.7432 3.99548L17.4146 3.46751C18.1335 3.24658 18.9109 3.5491 19.2703 4.19089L20.7905 6.81935C21.1544 7.47038 21.0315 8.27166 20.496 8.77596L19.2007 9.96688C19.2391 10.3162 19.2584 10.6637 19.2584 11.002C19.2584 11.3403 19.2391 11.6878 19.2007 12.0371L20.4896 13.2217C20.4915 13.2235 20.4933 13.2254 20.496 13.2272C21.0315 13.7314 21.1553 14.5328 20.795 15.1754L19.2656 17.8205C18.9109 18.4549 18.1316 18.7585 17.4165 18.5365L15.7422 18.0075C15.1793 18.4329 14.5797 18.7813 13.9508 19.0482L13.5638 20.7663C13.4062 21.4833 12.758 22.004 12.0246 22.004V22.004ZM5.39677 16.5571C5.5544 16.5571 5.70935 16.6111 5.83409 16.7139C6.46396 17.2319 7.15058 17.6317 7.87766 17.8994C8.09674 17.98 8.25908 18.1662 8.31045 18.3935L8.77715 20.4656C8.79813 20.561 8.88157 20.6288 8.97608 20.6288H12.0254C12.1199 20.6288 12.2034 20.561 12.2235 20.4674L12.691 18.3935C12.7424 18.1662 12.9047 17.98 13.1238 17.8994C13.8499 17.6317 14.5375 17.2319 15.1674 16.7139C15.3472 16.5653 15.5891 16.5176 15.812 16.5883L17.8299 17.2256C17.9261 17.2558 18.0289 17.22 18.0729 17.1411L19.6022 14.496C19.648 14.4145 19.6314 14.3027 19.5582 14.2311L18.0106 12.8082C17.8427 12.6541 17.7621 12.4258 17.796 12.2003C17.8565 11.7942 17.8868 11.3908 17.8868 11.0012C17.8868 10.6114 17.8565 10.208 17.796 9.80186C17.7621 9.5764 17.8427 9.34893 18.0106 9.19397L19.5618 7.76735C19.6314 7.70238 19.648 7.58856 19.5975 7.49791L18.0774 4.86928C18.028 4.78216 17.9234 4.74741 17.8281 4.77762L15.8129 5.41388C15.591 5.48456 15.349 5.43688 15.1684 5.28831C14.5385 4.77024 13.8517 4.37052 13.1247 4.10276C12.9056 4.02217 12.7433 3.836 12.692 3.60869L12.2253 1.53658C12.2023 1.44307 12.1189 1.37525 12.0246 1.37525H8.97507C8.88073 1.37525 8.79729 1.44307 8.77715 1.53658L8.30944 3.61054C8.25824 3.83785 8.0959 4.02301 7.87682 4.1046C7.15058 4.37237 6.46296 4.77208 5.83409 5.29015C5.65345 5.43872 5.40953 5.48539 5.18961 5.41573L3.17155 4.77846C3.0772 4.74925 2.97262 4.784 2.92863 4.86291L1.39927 7.50697C1.35344 7.58957 1.37006 7.70322 1.44611 7.77474L2.99192 9.19498C3.15963 9.34893 3.24038 9.57724 3.20647 9.80287C3.14587 10.209 3.11565 10.6124 3.11565 11.002C3.11565 11.3917 3.14587 11.7951 3.20647 12.2012C3.24038 12.4268 3.15963 12.6541 2.99192 12.809L1.44057 14.2357C1.3709 14.3008 1.35445 14.4145 1.40481 14.5053L2.92494 17.1337C2.97346 17.2209 3.07804 17.2548 3.17424 17.2256L5.18961 16.5891C5.25743 16.5672 5.3271 16.5571 5.39677 16.5571V16.5571Z" fill="#999999"/>
</svg>
